<svg height="35" viewBox="0 0 129 35" width="129" xmlns="http://www.w3.org/2000/svg" xmlns:xlink="http://www.w3.org/1999/xlink"><mask id="a" fill="#fff"><path d="m0 .05638245h128.955416v33.77140615h-128.955416z" fill="#fff" fill-rule="evenodd"/></mask><g fill="none" fill-rule="evenodd"><path d="m128.928179 9.21956184c.027237-1.50331703.907544-8.93533268-9.960264-9.12794912-4.415031-.0792681-118.96795774 0-118.96795774 0s.03879323 22.98749708 0 25.26834838c-.03618329 2.2800939 1.42396544 8.3037123 8.07112591 8.4226144 6.64514093.1166302 106.40101783-.032818 108.15678083 0 1.752734.0310509 12.700315 0 12.700315 0z" fill="#f00" mask="url(#a)" transform="translate(0 .196151)"/><g fill="#fefefe"><path d="m41.561225 24.8166464v-16.21840511h12.3383073v3.86469861h-7.2080959v2.5181507h5.7648611v3.7569041h-5.7648611v6.0786517z"/><path d="m56.0158644 24.7915027v-16.19265554h7.7435342c1.0845088 0 1.9953347.05755773 2.7319726.17115852.7323464.11587279 1.3379648.29510958 1.8092818.54124461.4819198.24310568.8860861.55487672 1.215276.93682781.3337338.3733679.5823933.7734951.7414344 1.1965949.166362.4246145.2491644.9519746.253456 1.5848571 0 .7848552-.1300098 1.4424775-.3854853 1.9736243-.2456302.5303894-.6005695.9691409-1.0567398 1.3144873-.3221213.2451252-.7303268.4309256-1.2246164.5616927 1.017863.3806889 1.7085558.8032838 2.0743503 1.2718239.3640274.4591996.5596732 1.2382485.5924912 2.3386615l.0727045 2.4701859c.0166614.3604931.0520039.5715381.1098141.635407.0749765.0936576.2047338.1486908.3943209.1615656v1.0345244h-5.2640078c-.1464188-.4241095-.2312407-1.6969432-.2516889-2.7168258l-.0323131-1.1524168c-.0070685-.5319041-.0951722-.9428865-.2645636-1.2294129-.1590411-.2951096-.4013894-.5175147-.7298219-.66873-.3284325-.1512152-.8212074-.2264442-1.4871605-.2264442h-2.0183072v5.9938297zm5.0239315-9.4228062h2.4807886c.7997496 0 1.3634619-.1350587 1.6913895-.4089628.3276751-.274409.4915127-.6396987.4915127-1.1006654 0-.4740939-.1555069-.8403933-.4723268-1.0988982-.3122759-.2658259-.8608415-.3981077-1.6467065-.3996224h-2.5446575z"/><path d="m73.1996994 24.8075331v-16.20906461h13.0209217v3.82001561h-7.943724v2.2783269h6.7423326v3.6746066h-6.7423326v2.5481918h8.2655929v3.8879237z"/><path d="m102.433169 13.455836h-4.8593361c-.1138533-.4450626-.3324716-.7772818-.6548454-.9966575-.3153053-.2264443-.7707182-.3385304-1.362957-.3392877-.583908 0-1.0282133.1158728-1.3324109.3483757-.2317456.178227-.3463562.4082055-.3463562.6911977 0 .241591.0853268.4342074.2597671.5834031.2436106.2123073.8191879.4273914 1.728499.6465147l1.9900333.4776282c1.8383131.4400137 3.1285652 1.0607788 3.8659612 1.8668395.744211.8053033 1.116822 1.7388493 1.119851 2.800638 0 .8461996-.195898 1.6212094-.583151 2.3222524-.380436.6934697-.847966 1.2415304-1.405368 1.644182-.559673.4026517-1.2831836.7207339-2.1722991.9552564-.8881056.2388141-1.8241761.3597358-2.802405.3597358-1.0734012 0-2.0857104-.1368258-3.0321312-.4140118-.9469256-.2754187-1.7244598-.6712544-2.3432054-1.1870019-.6046086-.5180196-1.0691096-1.1150548-1.3841625-1.7933777-.2229099-.4814149-.3776595-1.0741585-.4624814-1.7810078h4.909321c.1173874.4869687.3617553.8610939.745726 1.1233855.3753875.262544.9595479.3917965 1.7481898.3917965.6881683 0 1.1819531-.1110764 1.4831213-.3390353.2241723-.1693913.330957-.4066908.333229-.7108884 0-.3105088-.1055225-.5609354-.3110137-.7512799-.2022094-.1928688-.7623875-.3970978-1.6782622-.6164735l-1.7815127-.4347124c-.9317789-.2193757-1.8077672-.5240782-2.6231683-.9115831-.8169159-.3905343-1.4316223-.8906302-1.8481585-1.5073562-.415274-.6136967-.624047-1.3594227-.624047-2.2366732 0-.8615988.1873151-1.6292877.5581585-2.3020567.3756399-.6712544.8719491-1.2127515 1.494229-1.6237339.6323777-.40972016 1.3288767-.69978082 2.0960606-.87093933.7724853-.16762427 1.5699628-.25244619 2.3868787-.25244619.9714129 0 1.8663346.09895891 2.6751722.29637182.8083327.19135421 1.4530802.44581996 1.9329809.76314482.477628.3110137.871191.67251668 1.171097 1.08349898.300916.4021468.534934.8154012.698519 1.2410255.170906.417546.306975.9072916.410477 1.4732759"/><path d="m104.954678 24.8166464v-16.21840511h5.273348v5.48767511h4.944159v-5.48767511h5.286223v16.21840511h-5.286223v-6.2821233h-4.944159v6.2821233z"/><path d="m21.7369292 19.8369939c0-.3900293-.1582838-2.3184657 2.7120293-2.3184657h7.9470059v3.4155968c0 .5902192-.4700548 2.1432682-2.2268278 2.1432682h-6.3833542c-.4629863 0-1.5078611.0764911-2.0488532 2.5994383z"/><path d="m20.8677822 19.8369939c0-.3900293.1570215-2.3184657-2.7120294-2.3184657h-7.9490254v3.4155968c0 .5902192.4723268 2.1432682 2.2273327 2.1432682h6.3848689c.4637436 0 1.5045792.0764911 2.0488532 2.5994383z"/><path d="m21.7835307 11.2784877c0-.4498591-.1832759-2.68022116 3.1326047-2.68022116h9.1910607v3.94800586c0 .6833718-.5455362 2.4797789-2.5764658 2.4797789h-7.3790019c-.5374579 0-1.7421311.088861-2.3702172 3.006634 0 0 .0020195-6.3028239.0020195-6.7541976"/><path d="m20.821938 11.2784877c0-.4498591.1845381-2.68022116-3.1346243-2.68022116h-9.19055577v3.94800586c0 .6833718.54856555 2.4797789 2.57570837 2.4797789h7.3805167c.5351859 0 1.7398591.088861 2.368955 3.006634z"/></g></g></svg>